{
  "source": "C:\\Users\\Peter\\Desktop\\stuff\\MIUN\\quantitative_research\\video_compression\\videos\\BVI-HD\\BVI-HD_CDVL_videos\\ORIG\\BricksLeaves_1920x1080_60fps.mp4",
  "output": "C:\\Users\\Peter\\Desktop\\stuff\\MIUN\\quantitative_research\\video_compression\\compressed_videos\\BVI-HD\\vp9\\3\\BricksLeaves_1920x1080_60fps_vp9.webm",
  "codec": "vp9",
  "ok": "Input #0, mov,mp4,m4a,3gp,3g2,mj2, from 'C:\\Users\\Peter\\Desktop\\stuff\\MIUN\\quantitative_research\\video_compression\\videos\\BVI-HD\\BVI-HD_CDVL_videos\\ORIG\\BricksLeaves_1920x1080_60fps.mp4':\n  Metadata:\n    major_brand     : isom\n    minor_version   : 512\n    compatible_brands: isomiso2avc1mp41\n    encoder         : Lavf54.28.101\n  Duration: 00:00:05.00, start: 0.000000, bitrate: 524627 kb/s\n  Stream #0:0[0x1](und): Video: h264 (High 4:4:4 Predictive) (avc1 / 0x31637661), yuv420p(progressive), 1920x1080, 524622 kb/s, 60 fps, 60 tbr, 60 tbn (default)\n    Metadata:\n      handler_name    : VideoHandler\n      vendor_id       : [0][0][0][0]\n[out#0/webm @ 000001c541da9040] Codec AVOption b:a (set bitrate (in bits/s)) has not been used for any stream. The most likely reason is either wrong type (e.g. a video option with no video streams) or that it is a private option of some decoder which was not actually used for any stream.\nStream mapping:\n  Stream #0:0 -> #0:0 (h264 (native) -> vp9 (libvpx-vp9))\nPress [q] to stop, [?] for help\n[libvpx-vp9 @ 000001c5429b0640] v1.15.2-100-g40561f514\nOutput #0, webm, to 'C:\\Users\\Peter\\Desktop\\stuff\\MIUN\\quantitative_research\\video_compression\\compressed_videos\\BVI-HD\\vp9\\3\\BricksLeaves_1920x1080_60fps_vp9.webm':\n  Metadata:\n    major_brand     : isom\n    minor_version   : 512\n    compatible_brands: isomiso2avc1mp41\n    encoder         : Lavf62.3.100\n  Stream #0:0(und): Video: vp9, yuv420p(tv, progressive), 1920x1080, q=2-31, 3000 kb/s, 60 fps, 1k tbn (default)\n    Metadata:\n      encoder         : Lavc62.11.100 libvpx-vp9\n      handler_name    : VideoHandler\n      vendor_id       : [0][0][0][0]\n    Side data:\n      cpb: bitrate max/min/avg: 0/0/0 buffer size: 3000000 vbv_delay: N/A\nframe=    0 fps=0.0 q=0.0 size=       0KiB time=N/A bitrate=N/A speed=N/A elapsed=0:00:00.51    \nframe=    0 fps=0.0 q=0.0 size=       0KiB time=N/A bitrate=N/A speed=N/A elapsed=0:00:01.07    \nframe=    4 fps=2.4 q=61.0 size=       1KiB time=00:00:00.06 bitrate=  76.0kbits/s speed=0.0396x elapsed=0:00:01.68    \nframe=   11 fps=5.0 q=51.0 size=       1KiB time=00:00:00.18 bitrate=  27.6kbits/s speed=0.0827x elapsed=0:00:02.21    \nframe=   17 fps=6.2 q=50.0 size=       1KiB time=00:00:00.28 bitrate=  17.9kbits/s speed=0.103x elapsed=0:00:02.74    \nframe=   23 fps=7.0 q=50.0 size=       1KiB time=00:00:00.38 bitrate=  13.2kbits/s speed=0.117x elapsed=0:00:03.27    \nframe=   26 fps=6.8 q=51.0 size=       1KiB time=00:00:00.43 bitrate=  11.7kbits/s speed=0.114x elapsed=0:00:03.81    \nframe=   31 fps=7.1 q=54.0 size=       1KiB time=00:00:00.51 bitrate=   9.8kbits/s speed=0.119x elapsed=0:00:04.35    \nframe=   36 fps=7.4 q=56.0 size=       1KiB time=00:00:00.60 bitrate=   8.4kbits/s speed=0.123x elapsed=0:00:04.86    \nframe=   39 fps=7.2 q=54.0 size=       1KiB time=00:00:00.65 bitrate=   7.8kbits/s speed=0.12x elapsed=0:00:05.41    \nframe=   44 fps=7.4 q=56.0 size=       1KiB time=00:00:00.73 bitrate=   6.9kbits/s speed=0.123x elapsed=0:00:05.97    \nframe=   49 fps=7.5 q=40.0 size=       1KiB time=00:00:00.81 bitrate=   6.2kbits/s speed=0.125x elapsed=0:00:06.51    \nframe=   53 fps=7.5 q=55.0 size=       1KiB time=00:00:00.88 bitrate=   5.7kbits/s speed=0.125x elapsed=0:00:07.03    \nframe=   57 fps=7.6 q=55.0 size=       1KiB time=00:00:00.95 bitrate=   5.3kbits/s speed=0.126x elapsed=0:00:07.54    \nframe=   60 fps=7.4 q=56.0 size=       1KiB time=00:00:01.00 bitrate=   5.1kbits/s speed=0.124x elapsed=0:00:08.06    \nframe=   64 fps=7.4 q=56.0 size=       1KiB time=00:00:01.06 bitrate=   4.7kbits/s speed=0.124x elapsed=0:00:08.60    \nframe=   69 fps=7.5 q=57.0 size=       1KiB time=00:00:01.15 bitrate=   4.4kbits/s speed=0.126x elapsed=0:00:09.14    \nframe=   72 fps=7.4 q=57.0 size=       1KiB time=00:00:01.20 bitrate=   4.2kbits/s speed=0.123x elapsed=0:00:09.72    \nframe=   77 fps=7.5 q=57.0 size=       1KiB time=00:00:01.28 bitrate=   3.9kbits/s speed=0.125x elapsed=0:00:10.28    \nframe=   81 fps=7.5 q=57.0 size=       1KiB time=00:00:01.35 bitrate=   3.8kbits/s speed=0.125x elapsed=0:00:10.81    \nframe=   84 fps=7.4 q=58.0 size=       1KiB time=00:00:01.40 bitrate=   3.6kbits/s speed=0.123x elapsed=0:00:11.39    \nframe=   89 fps=7.4 q=57.0 size=       1KiB time=00:00:01.48 bitrate=   3.4kbits/s speed=0.124x elapsed=0:00:11.95    \nframe=   94 fps=7.5 q=57.0 size=       1KiB time=00:00:01.56 bitrate=   3.2kbits/s speed=0.125x elapsed=0:00:12.48    \nframe=   96 fps=7.4 q=57.0 size=       1KiB time=00:00:01.60 bitrate=   3.2kbits/s speed=0.123x elapsed=0:00:13.01    \nframe=  100 fps=7.4 q=58.0 size=       1KiB time=00:00:01.66 bitrate=   3.0kbits/s speed=0.123x elapsed=0:00:13.55    \nframe=  106 fps=7.5 q=58.0 size=       1KiB time=00:00:01.76 bitrate=   2.9kbits/s speed=0.125x elapsed=0:00:14.08    \nframe=  109 fps=7.4 q=41.0 size=       1KiB time=00:00:01.81 bitrate=   2.8kbits/s speed=0.124x elapsed=0:00:14.63    \nframe=  113 fps=7.4 q=59.0 size=       1KiB time=00:00:01.88 bitrate=   2.7kbits/s speed=0.124x elapsed=0:00:15.17    \nframe=  118 fps=7.5 q=58.0 size=       1KiB time=00:00:01.96 bitrate=   2.6kbits/s speed=0.125x elapsed=0:00:15.71    \nframe=  122 fps=7.5 q=59.0 size=       1KiB time=00:00:02.03 bitrate=   2.5kbits/s speed=0.125x elapsed=0:00:16.25    \nframe=  126 fps=7.5 q=59.0 size=       1KiB time=00:00:02.10 bitrate=   2.4kbits/s speed=0.125x elapsed=0:00:16.78    \nframe=  128 fps=7.4 q=59.0 size=       1KiB time=00:00:02.13 bitrate=   2.4kbits/s speed=0.123x elapsed=0:00:17.35    \nframe=  133 fps=7.4 q=58.0 size=     768KiB time=00:00:02.21 bitrate=2838.3kbits/s speed=0.124x elapsed=0:00:17.89    \nframe=  136 fps=7.4 q=58.0 size=     768KiB time=00:00:02.26 bitrate=2775.6kbits/s speed=0.123x elapsed=0:00:18.45    \nframe=  139 fps=7.3 q=58.0 size=     768KiB time=00:00:02.31 bitrate=2715.7kbits/s speed=0.122x elapsed=0:00:19.00    \nframe=  144 fps=7.4 q=60.0 size=     768KiB time=00:00:02.40 bitrate=2621.4kbits/s speed=0.123x elapsed=0:00:19.53    \nframe=  147 fps=7.3 q=60.0 size=     768KiB time=00:00:02.45 bitrate=2567.9kbits/s speed=0.122x elapsed=0:00:20.07    \nframe=  151 fps=7.3 q=60.0 size=     768KiB time=00:00:02.51 bitrate=2499.9kbits/s speed=0.122x elapsed=0:00:20.62    \nframe=  155 fps=7.3 q=59.0 size=     768KiB time=00:00:02.58 bitrate=2435.4kbits/s speed=0.122x elapsed=0:00:21.16    \nframe=  158 fps=7.3 q=59.0 size=     768KiB time=00:00:02.63 bitrate=2389.2kbits/s speed=0.121x elapsed=0:00:21.72    \nframe=  162 fps=7.3 q=60.0 size=     768KiB time=00:00:02.70 bitrate=2330.2kbits/s speed=0.121x elapsed=0:00:22.25    \nframe=  164 fps=7.2 q=37.0 size=     768KiB time=00:00:02.73 bitrate=2301.8kbits/s speed=0.12x elapsed=0:00:22.78    \nframe=  169 fps=7.3 q=60.0 size=     768KiB time=00:00:02.81 bitrate=2233.7kbits/s speed=0.121x elapsed=0:00:23.30    \nframe=  173 fps=7.2 q=60.0 size=     768KiB time=00:00:02.88 bitrate=2182.0kbits/s speed=0.121x elapsed=0:00:23.89    \nframe=  175 fps=7.2 q=60.0 size=     768KiB time=00:00:02.91 bitrate=2157.1kbits/s speed=0.119x elapsed=0:00:24.46    \nframe=  179 fps=7.1 q=60.0 size=     768KiB time=00:00:02.98 bitrate=2108.9kbits/s speed=0.119x elapsed=0:00:25.05    \nframe=  182 fps=7.1 q=60.0 size=     768KiB time=00:00:03.03 bitrate=2074.1kbits/s speed=0.118x elapsed=0:00:25.63    \nframe=  185 fps=7.1 q=59.0 size=     768KiB time=00:00:03.08 bitrate=2040.5kbits/s speed=0.118x elapsed=0:00:26.16    \nframe=  187 fps=7.0 q=59.0 size=     768KiB time=00:00:03.11 bitrate=2018.6kbits/s speed=0.117x elapsed=0:00:26.70    \nframe=  192 fps=7.0 q=58.0 size=     768KiB time=00:00:03.20 bitrate=1966.1kbits/s speed=0.117x elapsed=0:00:27.23    \nframe=  195 fps=7.0 q=58.0 size=     768KiB time=00:00:03.25 bitrate=1935.8kbits/s speed=0.117x elapsed=0:00:27.82    \nframe=  199 fps=7.0 q=59.0 size=     768KiB time=00:00:03.30 bitrate=1906.5kbits/s speed=0.116x elapsed=0:00:28.36    \nframe=  200 fps=6.9 q=37.0 size=     768KiB time=00:00:03.33 bitrate=1887.4kbits/s speed=0.115x elapsed=0:00:28.99    \nframe=  202 fps=6.8 q=59.0 size=     768KiB time=00:00:03.36 bitrate=1868.7kbits/s speed=0.114x elapsed=0:00:29.60    \nframe=  204 fps=6.8 q=59.0 size=     768KiB time=00:00:03.40 bitrate=1850.4kbits/s speed=0.113x elapsed=0:00:30.18    \nframe=  207 fps=6.7 q=59.0 size=     768KiB time=00:00:03.45 bitrate=1823.6kbits/s speed=0.112x elapsed=0:00:30.78    \nframe=  210 fps=6.7 q=59.0 size=     768KiB time=00:00:03.50 bitrate=1797.6kbits/s speed=0.111x elapsed=0:00:31.42    \nframe=  211 fps=6.6 q=59.0 size=     768KiB time=00:00:03.51 bitrate=1789.0kbits/s speed=0.11x elapsed=0:00:31.95    \nframe=  215 fps=6.6 q=58.0 size=     768KiB time=00:00:03.58 bitrate=1755.8kbits/s speed=0.11x elapsed=0:00:32.47    \nframe=  218 fps=6.6 q=59.0 size=     768KiB time=00:00:03.63 bitrate=1731.6kbits/s speed=0.11x elapsed=0:00:33.00    \nframe=  222 fps=6.6 q=59.0 size=     768KiB time=00:00:03.70 bitrate=1700.4kbits/s speed=0.11x elapsed=0:00:33.56    \nframe=  223 fps=6.5 q=59.0 size=     768KiB time=00:00:03.71 bitrate=1692.8kbits/s speed=0.109x elapsed=0:00:34.07    \nframe=  227 fps=6.6 q=60.0 size=     768KiB time=00:00:03.76 bitrate=1670.3kbits/s speed=0.109x elapsed=0:00:34.63    \nframe=  231 fps=6.6 q=61.0 size=     768KiB time=00:00:03.85 bitrate=1634.1kbits/s speed=0.109x elapsed=0:00:35.18    \nframe=  235 fps=6.6 q=61.0 size=     768KiB time=00:00:03.91 bitrate=1606.3kbits/s speed=0.109x elapsed=0:00:35.77    \nframe=  237 fps=6.5 q=63.0 size=     768KiB time=00:00:03.95 bitrate=1592.8kbits/s speed=0.109x elapsed=0:00:36.33    \nframe=  242 fps=6.6 q=63.0 size=     768KiB time=00:00:04.03 bitrate=1559.9kbits/s speed=0.109x elapsed=0:00:36.88    \nframe=  245 fps=6.5 q=63.0 size=     768KiB time=00:00:04.08 bitrate=1540.8kbits/s speed=0.109x elapsed=0:00:37.43    \nframe=  248 fps=6.5 q=63.0 size=     768KiB time=00:00:04.13 bitrate=1522.1kbits/s speed=0.109x elapsed=0:00:37.98    \nframe=  252 fps=6.5 q=63.0 size=     768KiB time=00:00:04.18 bitrate=1503.9kbits/s speed=0.109x elapsed=0:00:38.53    \nframe=  255 fps=6.5 q=63.0 size=     768KiB time=00:00:04.23 bitrate=1486.2kbits/s speed=0.108x elapsed=0:00:39.12    \nframe=  256 fps=6.4 q=63.0 size=     768KiB time=00:00:04.26 bitrate=1474.6kbits/s speed=0.107x elapsed=0:00:39.75    \nframe=  257 fps=6.4 q=44.0 size=     768KiB time=00:00:04.28 bitrate=1468.8kbits/s speed=0.106x elapsed=0:00:40.34    \nframe=  260 fps=6.4 q=63.0 size=    1536KiB time=00:00:04.33 bitrate=2903.7kbits/s speed=0.106x elapsed=0:00:40.89    \nframe=  262 fps=6.3 q=63.0 size=    1536KiB time=00:00:04.36 bitrate=2881.6kbits/s speed=0.105x elapsed=0:00:41.52    \nframe=  264 fps=6.3 q=63.0 size=    1536KiB time=00:00:04.40 bitrate=2859.8kbits/s speed=0.104x elapsed=0:00:42.15    \nframe=  267 fps=6.2 q=63.0 size=    1536KiB time=00:00:04.43 bitrate=2838.3kbits/s speed=0.104x elapsed=0:00:42.77    \nframe=  268 fps=6.2 q=63.0 size=    1536KiB time=00:00:04.46 bitrate=2817.1kbits/s speed=0.103x elapsed=0:00:43.50    \nframe=  269 fps=6.1 q=45.0 size=    1536KiB time=00:00:04.48 bitrate=2806.6kbits/s speed=0.101x elapsed=0:00:44.27    \nframe=  271 fps=6.0 q=63.0 size=    1536KiB time=00:00:04.51 bitrate=2785.9kbits/s speed=0.101x elapsed=0:00:44.89    \nframe=  273 fps=6.0 q=63.0 size=    1536KiB time=00:00:04.55 bitrate=2765.5kbits/s speed=0.0999x elapsed=0:00:45.53    \nframe=  275 fps=6.0 q=63.0 size=    1536KiB time=00:00:04.58 bitrate=2745.4kbits/s speed=0.0994x elapsed=0:00:46.13    \nframe=  276 fps=5.9 q=63.0 size=    1536KiB time=00:00:04.60 bitrate=2735.4kbits/s speed=0.0985x elapsed=0:00:46.72    \nframe=  276 fps=5.8 q=63.0 size=    1536KiB time=00:00:04.60 bitrate=2735.4kbits/s speed=0.0972x elapsed=0:00:47.34    \nframe=  276 fps=5.8 q=63.0 size=    1536KiB time=00:00:04.60 bitrate=2735.4kbits/s speed=0.096x elapsed=0:00:47.91    \nframe=  276 fps=5.7 q=63.0 size=    1536KiB time=00:00:04.60 bitrate=2735.4kbits/s speed=0.0949x elapsed=0:00:48.49    \nframe=  276 fps=5.6 q=63.0 size=    1536KiB time=00:00:04.60 bitrate=2735.4kbits/s speed=0.0937x elapsed=0:00:49.10    \nframe=  276 fps=5.6 q=63.0 size=    1536KiB time=00:00:04.60 bitrate=2735.4kbits/s speed=0.0926x elapsed=0:00:49.68    \nframe=  276 fps=5.5 q=63.0 size=    1536KiB time=00:00:04.60 bitrate=2735.4kbits/s speed=0.0916x elapsed=0:00:50.21    \nframe=  276 fps=5.4 q=63.0 size=    1536KiB time=00:00:04.60 bitrate=2735.4kbits/s speed=0.0906x elapsed=0:00:50.76    \nframe=  276 fps=5.4 q=63.0 size=    1536KiB time=00:00:04.60 bitrate=2735.4kbits/s speed=0.0896x elapsed=0:00:51.31    \nframe=  276 fps=5.3 q=63.0 size=    1536KiB time=00:00:04.60 bitrate=2735.4kbits/s speed=0.0886x elapsed=0:00:51.90    \nframe=  276 fps=5.3 q=63.0 size=    1536KiB time=00:00:04.60 bitrate=2735.4kbits/s speed=0.0877x elapsed=0:00:52.44    \n[out#0/webm @ 000001c541da9040] video:2174KiB audio:0KiB subtitle:0KiB other streams:0KiB global headers:0KiB muxing overhead: 0.127942%\nframe=  300 fps=5.7 q=63.0 Lsize=    2177KiB time=00:00:05.00 bitrate=3566.2kbits/s speed=0.095x elapsed=0:00:52.62    \n",
  "seconds": 53.006014823913574,
  "probe_out": {}
}